<?xml version="1.0" encoding="utf-8"?>
<!-- Generator: Adobe Illustrator 15.0.0, SVG Export Plug-In . SVG Version: 6.00 Build 0)  -->
<!DOCTYPE svg PUBLIC "-//W3C//DTD SVG 1.1//EN" "http://www.w3.org/Graphics/SVG/1.1/DTD/svg11.dtd">
<svg version="1.1" xmlns="http://www.w3.org/2000/svg" xmlns:xlink="http://www.w3.org/1999/xlink" x="0px" y="0px" width="208px"
	 height="55px" viewBox="0 0 208 55" enable-background="new 0 0 208 55" xml:space="preserve">
<g id="Layer_3" display="none">
	<rect x="6.5" y="-2" display="inline" stroke="#FFFFFF" stroke-width="3" width="208" height="57"/>
</g>
<g id="Layer_2">
	<text transform="matrix(1 0 0 1 58.9658 39.4551)" fill="#FFFFFF" font-family="'Tahoma-Bold'" font-size="24.5709">Valley Road</text>
	<path fill="none" stroke="#E8BA1F" stroke-width="5" d="M51.673,27.089"/>
	<line fill="none" stroke="#FFFFFF" stroke-width="3" x1="59" y1="46" x2="208" y2="46"/>
</g>
<g id="Layer_1">
	<path fill="none" stroke="#E8BA1F" stroke-width="5" d="M29.261,49.759c-12.52,0-22.669-10.149-22.669-22.67
		c0-12.52,10.15-22.669,22.669-22.669c11.242,0,20.572,8.182,22.361,18.916"/>
	<g>
		<path fill="#FFFFFF" stroke="#000000" stroke-width="0.25" d="M33.126,12.9L21.937,45.441h-4.676L6.072,12.9h4.632l9.004,27.012
			L28.712,12.9H33.126z"/>
		<path fill="#FFFFFF" stroke="#000000" stroke-width="0.25" d="M54.923,45.441h-5.617L38.991,32.503h-4.938v12.938h-4.328V12.9
			h8.392c1.865,0,3.428,0.103,4.688,0.306c1.261,0.204,2.459,0.678,3.595,1.421c1.136,0.728,2.036,1.667,2.699,2.819
			c0.663,1.151,0.995,2.579,0.995,4.283c0,2.39-0.604,4.386-1.813,5.988c-1.209,1.603-2.856,2.791-4.939,3.562L54.923,45.441z
			 M45.569,22.056c0-0.946-0.167-1.788-0.502-2.523c-0.335-0.736-0.853-1.336-1.551-1.803c-0.612-0.408-1.326-0.695-2.142-0.863
			c-0.816-0.167-1.829-0.251-3.039-0.251h-4.283v12.281h3.802c1.239,0,2.353-0.108,3.343-0.327c0.991-0.218,1.836-0.67,2.536-1.355
			c0.626-0.612,1.089-1.34,1.387-2.185C45.419,24.184,45.569,23.193,45.569,22.056z"/>
	</g>
</g>
</svg>
